<?xml version="1.0" encoding="UTF-8"?>
<svg xmlns="http://www.w3.org/2000/svg" id="Layer_1" data-name="Layer 1" width="413" height="235" viewBox="0 0 413 235">
  <defs>
    <style>
      .cls-1 {
        fill: #009cde;
      }

      .cls-2 {
        fill: #fff;
      }
    </style>
  </defs>
  <g id="Layer_1-2" data-name="Layer 1-2">
    <g id="Layer_1-2-2" data-name="Layer 1-2">
      <g>
        <path class="cls-2" d="M72.951,125.313h10.091c3.272,0,5.714-.791,7.328-2.371,1.614-1.579,2.419-3.777,2.414-6.592,0-2.754-.804-4.893-2.414-6.42-1.609-1.527-4.052-2.288-7.328-2.283h-10.119l.029,17.666h-.001ZM91.917,157.809l-13.304-23.446h-5.692v23.446h-12.062v-60.167h22.58c4.653,0,8.617.82,11.894,2.457,3.058,1.438,5.623,3.746,7.371,6.638,1.65,2.836,2.5,6.068,2.457,9.348.035,3.857-1.174,7.622-3.446,10.739-2.302,3.183-5.722,5.381-10.259,6.595l14.395,24.389h-13.937.002,0Z"></path>
        <path class="cls-2" d="M142.808,129.449c.051-2.861-1.181-5.596-3.359-7.452-2.232-1.884-5.078-2.882-7.997-2.807-2.769-.085-5.468.888-7.546,2.719-2.125,1.974-3.46,4.654-3.751,7.54h22.653ZM154.984,137.556h-34.895c.286,3.446,1.497,6.145,3.635,8.098,2.14,1.951,4.951,2.993,7.844,2.907,4.483,0,7.672-1.923,9.567-5.771h13.014c-1.336,4.541-4.118,8.521-7.925,11.334-3.911,2.962-8.709,4.441-14.394,4.441-4.315.069-8.574-.985-12.358-3.06-3.618-2.01-6.58-5.018-8.536-8.666-2.098-3.979-3.152-8.427-3.061-12.926-.115-4.51.897-8.978,2.945-12.999,1.916-3.633,4.851-6.628,8.446-8.615,7.746-4,16.944-4.032,24.718-.087,3.538,1.898,6.444,4.79,8.361,8.317,2.032,3.797,3.058,8.052,2.974,12.358.014,1.562-.099,3.122-.336,4.668h0Z"></path>
        <polygon class="cls-2" points="227.734 110.052 213.77 157.809 200.756 157.809 192.033 124.455 183.309 157.809 170.222 157.809 156.177 110.052 168.412 110.052 176.86 146.403 185.999 110.052 198.786 110.052 207.751 146.345 216.197 110.052 227.734 110.052 227.734 110.052"></polygon>
        <path class="cls-2" d="M264.454,126.418c-1.072-2.012-2.686-3.686-4.658-4.827-1.91-1.109-4.081-1.688-6.289-1.68-2.178-.015-4.322.549-6.208,1.636-1.944,1.145-3.539,2.798-4.609,4.784-1.209,2.286-1.808,4.845-1.738,7.431-.06,2.623.55,5.22,1.767,7.546,1.073,2.041,2.68,3.752,4.653,4.95,1.856,1.133,3.991,1.729,6.165,1.723,2.208.009,4.379-.57,6.289-1.679,1.977-1.139,3.591-2.811,4.66-4.827,2.297-4.766,2.297-10.319,0-15.085l-.03.028h-.002ZM231.5,120.914c1.756-3.549,4.475-6.534,7.845-8.615,3.332-2.019,7.162-3.064,11.058-3.016,3.252-.064,6.468.686,9.357,2.181,2.517,1.308,4.711,3.164,6.419,5.43v-6.812h12.156v47.755h-12.156v-6.978c-1.665,2.337-3.867,4.242-6.419,5.553-2.919,1.508-6.168,2.258-9.451,2.181-3.881.04-7.69-1.033-10.979-3.097-3.361-2.134-6.069-5.153-7.83-8.724-1.993-4.03-2.991-8.481-2.907-12.976-.086-4.466.911-8.887,2.907-12.884h0Z"></path>
        <path class="cls-2" d="M305.698,111.522c2.616-1.474,5.575-2.227,8.578-2.181v12.715h-3.191c-3.796,0-6.655.89-8.578,2.668-1.925,1.78-2.895,4.884-2.909,9.313v23.788h-12.046v-47.772h12.069v7.416c1.49-2.464,3.581-4.51,6.078-5.946h0Z"></path>
        <path class="cls-2" d="M352.545,126.418c-1.072-2.011-2.685-3.682-4.652-4.827-1.913-1.109-4.085-1.688-6.296-1.68-2.176-.017-4.316.548-6.201,1.636-1.944,1.145-3.542,2.799-4.616,4.784-1.223,2.292-1.832,4.862-1.765,7.459-.06,2.625.548,5.22,1.765,7.546,1.076,2.041,2.687,3.754,4.66,4.95,1.853,1.133,3.985,1.731,6.158,1.723,2.211.009,4.384-.57,6.296-1.679,1.972-1.142,3.583-2.814,4.652-4.827,2.296-4.765,2.296-10.319,0-15.085h-.001ZM319.575,120.914c3.555-7.224,10.953-11.752,19.004-11.631,3.076-.006,6.113.685,8.884,2.02,2.647,1.217,4.954,3.068,6.717,5.387v-22.666h12.243v63.785h-12.243v-7.066c-1.558,2.417-3.727,4.378-6.287,5.684-2.904,1.495-6.134,2.244-9.399,2.181-3.898.033-7.724-1.045-11.03-3.111-3.383-2.124-6.113-5.144-7.888-8.724-1.993-4.03-2.991-8.481-2.907-12.976-.087-4.466.911-8.887,2.907-12.884h0Z"></path>
        <path class="cls-2" d="M383.441,156.471c-2.905-1.249-5.444-3.221-7.371-5.729-1.768-2.309-2.804-5.095-2.973-7.997h12.155c.224,1.837,1.208,3.494,2.712,4.572,1.709,1.248,3.789,1.885,5.903,1.811,1.896.108,3.777-.375,5.387-1.381,1.21-.766,1.943-2.1,1.94-3.534.009-1.541-.934-2.928-2.369-3.488-2.431-1.075-4.953-1.926-7.539-2.545-2.968-.681-5.884-1.575-8.724-2.675-2.265-.914-4.276-2.363-5.859-4.223-1.633-1.9-2.453-4.457-2.458-7.67-.02-2.603.779-5.147,2.283-7.27,1.663-2.292,3.927-4.081,6.543-5.169,3.179-1.33,6.602-1.977,10.047-1.898,5.685,0,10.224,1.423,13.617,4.267,3.393,2.844,5.26,6.68,5.605,11.508h-11.61c-.112-1.778-.973-3.423-2.37-4.528-1.635-1.19-3.63-1.785-5.648-1.68-2.182,0-3.86.402-5.038,1.207-1.139.733-1.808,2.007-1.767,3.359-.003,1.587.948,3.022,2.414,3.635,2.401,1.11,4.914,1.963,7.495,2.544,2.904.69,5.755,1.583,8.534,2.674,2.254.929,4.251,2.391,5.816,4.262,1.644,1.938,2.491,4.482,2.544,7.632.033,2.648-.765,5.239-2.281,7.408-1.656,2.29-3.924,4.07-6.544,5.132-3.158,1.296-6.547,1.926-9.96,1.853-3.602.067-7.177-.642-10.483-2.079h0v.002h0Z"></path>
        <polygon class="cls-1" points="138.358 207.512 .5 207.512 .5 64.167 99.145 64.167 99.145 77.254 13.586 77.254 13.586 194.426 125.273 194.426 125.273 172.911 138.358 172.911 138.358 207.512 138.358 207.512"></polygon>
        <polygon class="cls-1" points="92.327 1.776 97.09 1.776 100.997 18.806 105.508 1.776 110.462 1.776 114.718 18.711 118.656 1.776 123.452 1.776 117.259 23.706 112.018 23.706 107.857 8.092 103.506 23.706 98.297 23.707 92.327 1.776 92.327 1.776"></polygon>
        <path class="cls-1" d="M131.126,20.156c2.35,0,4.605-1.697,4.605-5.153,0-3.487-2.191-5.154-4.541-5.153-2.35,0-4.478,1.665-4.478,5.153,0,3.456,2.032,5.153,4.415,5.153h0ZM131.126,23.989c-5.082,0-8.924-3.519-8.924-8.986,0-5.498,3.97-8.986,9.052-8.986s9.052,3.487,9.052,8.986c0,5.467-4.065,8.986-9.179,8.986h0Z"></path>
        <path class="cls-1" d="M146.765,23.707h-4.447V6.3h4.447v2.703c1.112-1.792,2.953-2.954,5.398-2.954v4.619h-1.174c-2.636,0-4.224,1.005-4.224,4.367v8.671h0Z"></path>
        <polygon class="cls-1" points="154.178 23.707 158.624 23.707 158.624 .456 154.178 .456 154.178 23.707 154.178 23.707"></polygon>
        <path class="cls-1" d="M169.82,9.882c-2.382,0-4.637,1.759-4.637,5.059s2.254,5.184,4.637,5.184c2.446,0,4.668-1.821,4.668-5.121s-2.222-5.121-4.668-5.121h0ZM168.708,6.017c2.318,0,4.542,1.069,5.748,2.702V.456h4.51v23.25h-4.51v-2.576c-1.049,1.603-3.016,2.858-5.781,2.859-4.477,0-8.035-3.614-8.035-9.048s3.557-8.923,8.068-8.923h0Z"></path>
        <path class="cls-1" d="M190.587,9.882c-2.382,0-4.636,1.759-4.636,5.059s2.254,5.184,4.636,5.184c2.446,0,4.668-1.822,4.668-5.12s-2.222-5.121-4.669-5.121h.001ZM189.443,6.017c2.826,0,4.764,1.32,5.812,2.764v-2.481h4.48v17.404h-4.479v-2.545c-1.048,1.51-3.05,2.828-5.843,2.828-4.447,0-8.004-3.613-8.004-9.047s3.557-8.923,8.035-8.923h-.001Z"></path>
        <path class="cls-1" d="M203.844,9.913h-2.097v-3.613h2.097V1.996h4.478v4.304h3.937v3.613h-3.937v8.42c0,1.163.476,1.666,1.874,1.666h2.064v3.708h-2.795c-3.367,0-5.622-1.414-5.622-5.404v-8.388h.001Z"></path>
        <polygon class="cls-1" points="213.28 1.775 218.043 1.776 221.949 18.804 226.459 1.775 231.415 1.775 235.67 18.711 239.608 1.775 244.406 1.775 238.211 23.706 232.97 23.706 228.81 8.091 224.459 23.706 219.242 23.706 213.28 1.775 213.28 1.775"></polygon>
        <path class="cls-1" d="M252.061,20.156c2.35,0,4.605-1.697,4.605-5.153,0-3.487-2.191-5.153-4.541-5.153s-4.477,1.665-4.477,5.153c0,3.456,2.032,5.153,4.415,5.153h-.001ZM252.061,23.989c-5.082,0-8.924-3.519-8.924-8.986,0-5.497,3.969-8.985,9.052-8.985s9.052,3.487,9.052,8.986c0,5.467-4.065,8.986-9.178,8.986h-.001Z"></path>
        <path class="cls-1" d="M267.687,23.706h-4.447V6.3h4.447v2.702c1.111-1.791,2.954-2.953,5.399-2.953v4.619h-1.174c-2.637,0-4.225,1.006-4.225,4.367v8.672h0Z"></path>
        <polygon class="cls-1" points="275.099 .456 279.546 .456 279.546 13.683 285.517 6.3 291.296 6.299 283.484 15.034 291.296 23.706 285.517 23.706 279.546 16.291 279.546 23.706 275.099 23.706 275.099 .456 275.099 .456"></polygon>
        <path class="cls-1" d="M295.183.611c.572,0,1.083.129,1.53.387s.799.616,1.055,1.074c.257.457.384.969.384,1.535s-.127,1.076-.384,1.528c-.256.452-.608.808-1.055,1.067-.447.258-.958.387-1.53.387s-1.085-.129-1.537-.387c-.452-.259-.807-.614-1.063-1.067-.256-.452-.384-.962-.384-1.528s.128-1.078.384-1.535c.257-.457.611-.815,1.063-1.074.452-.258.964-.387,1.537-.387h0ZM295.183,6.097c.724,0,1.308-.234,1.756-.701.447-.467.67-1.063.67-1.789s-.223-1.322-.67-1.789c-.447-.466-1.032-.701-1.756-.701-.733,0-1.323.234-1.77.701-.447.467-.67,1.064-.67,1.789s.223,1.323.67,1.789c.447.467,1.037.701,1.77.701h0ZM296.494,2.951c0,.249-.07.455-.21.619s-.337.271-.587.321l.905,1.282-.769.015-.829-1.267h-.347v1.267h-.648V1.983h1.401c.332,0,.595.087.791.261s.294.41.294.708h0ZM294.655,3.384h.709c.141,0,.256-.034.346-.104.09-.07.135-.174.135-.313s-.046-.241-.135-.305-.206-.097-.346-.097h-.709v.82h0Z"></path>
        <path class="cls-2" d="M142.076,36.745v9.742h-16.036v50.437h-12.071v-50.437h-16.036v-9.742h44.143ZM159.681,97.699c-4.599,0-8.737-1.02-12.416-3.061-3.678-2.04-6.566-4.929-8.664-8.664-2.098-3.736-3.147-8.047-3.147-12.932s1.078-9.196,3.233-12.932c2.156-3.736,5.101-6.625,8.837-8.664,3.736-2.04,7.903-3.061,12.501-3.061s8.765,1.02,12.501,3.061c3.736,2.04,6.681,4.928,8.837,8.664,2.155,3.736,3.233,8.047,3.233,12.932s-1.106,9.196-3.32,12.932c-2.213,3.736-5.202,6.624-8.967,8.664-3.765,2.04-7.976,3.061-12.631,3.061h.001ZM159.681,87.182c2.184,0,4.239-.532,6.165-1.595,1.925-1.064,3.463-2.658,4.613-4.785,1.15-2.126,1.724-4.713,1.724-7.759,0-4.541-1.192-8.032-3.577-10.475s-5.302-3.664-8.751-3.664-6.337,1.221-8.664,3.664c-2.328,2.443-3.491,5.934-3.491,10.475s1.135,8.032,3.405,10.475c2.27,2.443,5.129,3.664,8.578,3.664h-.001ZM205.48,59.074v23.106c0,1.61.388,2.773,1.164,3.491.776.719,2.084,1.078,3.923,1.078h5.604v10.174h-7.587c-10.174,0-15.26-4.943-15.26-14.829v-23.019h-5.691v-9.915h5.691v-11.812h12.157v11.812h10.691v9.915h-10.691ZM219.722,72.869c0-4.828.963-9.11,2.888-12.846,1.925-3.736,4.541-6.61,7.845-8.622,3.305-2.011,6.998-3.018,11.079-3.018,3.564,0,6.681.719,9.355,2.156,2.672,1.437,4.814,3.248,6.423,5.432v-6.811h12.157v47.764h-12.157v-6.984c-1.552,2.242-3.693,4.095-6.423,5.561-2.73,1.466-5.877,2.199-9.441,2.199-4.024,0-7.688-1.034-10.993-3.104-3.305-2.07-5.92-4.986-7.845-8.751-1.926-3.765-2.888-8.09-2.888-12.976h0ZM257.313,73.042c0-2.931-.574-5.446-1.724-7.544-1.15-2.098-2.702-3.708-4.655-4.828-1.954-1.12-4.053-1.681-6.294-1.681s-4.311.546-6.208,1.638c-1.897,1.092-3.434,2.688-4.613,4.786-1.178,2.098-1.767,4.583-1.767,7.457s.589,5.388,1.767,7.544c1.178,2.156,2.73,3.808,4.656,4.958,1.925,1.15,3.98,1.724,6.165,1.724,2.242,0,4.34-.56,6.294-1.68,1.954-1.121,3.506-2.73,4.655-4.828,1.15-2.098,1.724-4.613,1.724-7.544h0ZM291.299,33.906v63.018h-12.071v-63.018h12.071Z"></path>
        <path class="cls-2" d="M169.786,170.304h12.741l-9.361,21.843h-8.321l4.941-21.843h0ZM191.022,220.577c5.547-4.623,9.968-8.48,13.262-11.571,3.293-3.091,6.038-6.312,8.235-9.664,2.196-3.352,3.294-6.645,3.294-9.881,0-2.947-.694-5.258-2.08-6.934-1.387-1.676-3.526-2.514-6.415-2.514s-5.114.968-6.674,2.904c-1.56,1.936-2.369,4.579-2.427,7.93h-11.789c.232-6.934,2.297-12.192,6.197-15.775,3.901-3.582,8.855-5.373,14.865-5.373,6.588,0,11.644,1.748,15.169,5.244,3.525,3.495,5.288,8.104,5.288,13.825,0,4.508-1.213,8.812-3.641,12.915-2.427,4.103-5.2,7.671-8.32,10.705s-7.195,6.689-12.221,10.965h25.57v10.055h-42.819v-9.014l4.508-3.814h-.002,0Z"></path>
      </g>
      <path class="cls-2" d="M264.314,181.448c-1.418-1.215-3.457-1.822-6.116-1.822-3.991,0-6.927,1.605-8.806,4.815-1.88,3.21-2.849,8.43-2.906,15.66,1.388-2.313,3.412-4.121,6.073-5.422,2.66-1.301,5.553-1.952,8.676-1.952,3.759,0,7.084.811,9.977,2.429,2.892,1.62,5.147,3.977,6.767,7.071,1.618,3.095,2.429,6.81,2.429,11.148,0,4.107-.824,7.765-2.473,10.975-1.648,3.21-4.064,5.712-7.244,7.505-3.182,1.793-6.97,2.689-11.365,2.689-6.016,0-10.744-1.33-14.185-3.991-3.442-2.66-5.843-6.377-7.201-11.148-1.36-4.772-2.039-10.656-2.039-17.655,0-10.584,1.822-18.58,5.466-23.988,3.644-5.407,9.398-8.112,17.265-8.112,6.073,0,10.786,1.648,14.142,4.945,3.354,3.297,5.292,7.404,5.813,12.32h-11.278c-.579-2.429-1.577-4.251-2.993-5.466ZM250.737,205.394c-2.082,1.793-3.123,4.396-3.123,7.808s.968,6.103,2.906,8.068c1.937,1.967,4.67,2.95,8.199,2.95,3.123,0,5.596-.954,7.418-2.863,1.822-1.909,2.733-4.482,2.733-7.721,0-3.354-.882-6.015-2.646-7.982-1.765-1.966-4.353-2.95-7.765-2.95-3.066,0-5.639.897-7.721,2.69Z"></path>
    </g>
    <path class="cls-1" d="M295.272.611c.573,0,1.085.13,1.532.388s.8.617,1.056,1.076c.257.458.385.97.385,1.537s-.128,1.078-.385,1.53c-.256.453-.609.809-1.056,1.069-.448.258-.959.388-1.532.388s-1.087-.13-1.539-.388c-.453-.259-.808-.615-1.064-1.069-.256-.453-.385-.963-.385-1.53s.129-1.08.385-1.537c.257-.458.612-.816,1.064-1.076.453-.258.965-.388,1.539-.388h0ZM295.272,6.106c.725,0,1.311-.234,1.759-.702.448-.468.671-1.064.671-1.792s-.224-1.324-.671-1.792c-.448-.467-1.034-.702-1.759-.702-.734,0-1.325.234-1.773.702-.448.468-.671,1.065-.671,1.792s.224,1.325.671,1.792c.448.468,1.039.702,1.773.702h0ZM296.585,2.956c0,.249-.07.456-.211.62s-.337.271-.588.321l.906,1.284-.771.015-.831-1.269h-.347v1.269h-.649V1.985h1.404c.332,0,.596.087.792.261s.295.41.295.709h0ZM294.744,3.389h.71c.141,0,.256-.034.346-.104.09-.07.136-.174.136-.314s-.046-.241-.136-.306-.207-.097-.346-.097h-.71v.821h0Z"></path>
  </g>
</svg>
